<mxfile host="Electron" modified="2023-09-12T23:32:19.767Z" agent="Mozilla/5.0 (Windows NT 10.0; Win64; x64) AppleWebKit/537.36 (KHTML, like Gecko) draw.io/21.6.8 Chrome/114.0.5735.289 Electron/25.5.0 Safari/537.36" etag="3ooDHxIIUlR7K3TkP8PW" version="21.6.8" type="device">
  <diagram id="C5RBs43oDa-KdzZeNtuy" name="Page-1">
    <mxGraphModel dx="1610" dy="512" grid="1" gridSize="14" guides="1" tooltips="1" connect="1" arrows="1" fold="1" page="1" pageScale="1" pageWidth="827" pageHeight="1169" math="0" shadow="0">
      <root>
        <mxCell id="WIyWlLk6GJQsqaUBKTNV-0" />
        <mxCell id="WIyWlLk6GJQsqaUBKTNV-1" parent="WIyWlLk6GJQsqaUBKTNV-0" />
        <mxCell id="gf8eI8EsZmmdJB4KDOLK-2" value="&lt;font style=&quot;font-size: 14px;&quot;&gt;Persn&lt;/font&gt;" style="rounded=0;whiteSpace=wrap;html=1;strokeColor=#000000;" vertex="1" parent="WIyWlLk6GJQsqaUBKTNV-1">
          <mxGeometry x="141" y="191" width="127" height="40" as="geometry" />
        </mxCell>
        <mxCell id="gf8eI8EsZmmdJB4KDOLK-14" value="" style="edgeStyle=orthogonalEdgeStyle;rounded=0;orthogonalLoop=1;jettySize=auto;html=1;" edge="1" parent="WIyWlLk6GJQsqaUBKTNV-1">
          <mxGeometry relative="1" as="geometry">
            <mxPoint x="208.5" y="290" as="sourcePoint" />
            <mxPoint x="208.5" y="354" as="targetPoint" />
          </mxGeometry>
        </mxCell>
        <mxCell id="gf8eI8EsZmmdJB4KDOLK-10" value="- id: int&lt;br&gt;- name: str" style="rounded=0;whiteSpace=wrap;html=1;" vertex="1" parent="WIyWlLk6GJQsqaUBKTNV-1">
          <mxGeometry x="141" y="232" width="127" height="58" as="geometry" />
        </mxCell>
        <mxCell id="gf8eI8EsZmmdJB4KDOLK-13" value="Utility Functions" style="whiteSpace=wrap;html=1;rounded=0;" vertex="1" parent="WIyWlLk6GJQsqaUBKTNV-1">
          <mxGeometry x="144.5" y="354" width="125.5" height="46" as="geometry" />
        </mxCell>
        <mxCell id="gf8eI8EsZmmdJB4KDOLK-17" value="" style="edgeStyle=orthogonalEdgeStyle;rounded=0;orthogonalLoop=1;jettySize=auto;html=1;" edge="1" parent="WIyWlLk6GJQsqaUBKTNV-1">
          <mxGeometry relative="1" as="geometry">
            <mxPoint x="210.5" y="435" as="sourcePoint" />
            <mxPoint x="210.5" y="506" as="targetPoint" />
          </mxGeometry>
        </mxCell>
        <mxCell id="gf8eI8EsZmmdJB4KDOLK-15" value="- is_valid_name(name: str): bool" style="whiteSpace=wrap;html=1;" vertex="1" parent="WIyWlLk6GJQsqaUBKTNV-1">
          <mxGeometry x="145" y="400" width="125" height="42" as="geometry" />
        </mxCell>
        <mxCell id="gf8eI8EsZmmdJB4KDOLK-20" value="" style="edgeStyle=orthogonalEdgeStyle;rounded=0;orthogonalLoop=1;jettySize=auto;html=1;" edge="1" parent="WIyWlLk6GJQsqaUBKTNV-1">
          <mxGeometry relative="1" as="geometry">
            <mxPoint x="214" y="566" as="sourcePoint" />
            <mxPoint x="214" y="646" as="targetPoint" />
          </mxGeometry>
        </mxCell>
        <mxCell id="gf8eI8EsZmmdJB4KDOLK-16" value="API Route (Methods)" style="whiteSpace=wrap;html=1;" vertex="1" parent="WIyWlLk6GJQsqaUBKTNV-1">
          <mxGeometry x="144" y="506" width="126" height="60" as="geometry" />
        </mxCell>
        <mxCell id="gf8eI8EsZmmdJB4KDOLK-19" value="- create_person()&lt;br&gt;- get_person(person_id: int)&lt;br&gt;- update_person(person_id: int)&lt;br&gt;- delete_person(person_id: int)" style="whiteSpace=wrap;html=1;" vertex="1" parent="WIyWlLk6GJQsqaUBKTNV-1">
          <mxGeometry x="117" y="647" width="182" height="89" as="geometry" />
        </mxCell>
        <mxCell id="gf8eI8EsZmmdJB4KDOLK-21" value="" style="curved=1;endArrow=classic;html=1;rounded=0;entryX=0;entryY=0.5;entryDx=0;entryDy=0;" edge="1" parent="WIyWlLk6GJQsqaUBKTNV-1" target="gf8eI8EsZmmdJB4KDOLK-2">
          <mxGeometry width="50" height="50" relative="1" as="geometry">
            <mxPoint x="116" y="694" as="sourcePoint" />
            <mxPoint x="117" y="213" as="targetPoint" />
            <Array as="points">
              <mxPoint x="1" y="708" />
              <mxPoint x="1" y="610" />
              <mxPoint x="1" y="554" />
              <mxPoint x="1" y="430" />
              <mxPoint x="1" y="276" />
              <mxPoint x="4" y="218" />
              <mxPoint x="32" y="204" />
            </Array>
          </mxGeometry>
        </mxCell>
        <mxCell id="gf8eI8EsZmmdJB4KDOLK-24" value="Flask API Class Diagram&lt;br&gt;&lt;br&gt;This diagram outlines the clsass&amp;nbsp;structure for a Flask API, including key classes and their attributes/methods&amp;nbsp;" style="text;html=1;align=center;verticalAlign=middle;resizable=0;points=[];autosize=1;strokeColor=none;fillColor=none;" vertex="1" parent="WIyWlLk6GJQsqaUBKTNV-1">
          <mxGeometry x="-134" y="24" width="602" height="56" as="geometry" />
        </mxCell>
      </root>
    </mxGraphModel>
  </diagram>
</mxfile>
